<svg xmlns="http://www.w3.org/2000/svg" width="694.6473388671875" height="487.1330261230469" viewBox="-579.3703002929688 -371.5445556640625 694.6473388671875 487.1330261230469"><title>Neo4j Graph Visualization</title><desc>Created using Neo4j (http://www.neo4j.com/)</desc><g class="layer relationships"><g class="relationship" transform="translate(-382.34184542662473 86.58848179941174) rotate(268.68924102909114)"><path class="b-outline" fill="#A5ABB6" stroke="none" d="M 25 0.5 L 40.12145200168251 0.5 L 40.12145200168251 -0.5 L 25 -0.5 Z M 121.54332700168251 0.5 L 136.66477900336503 0.5 L 136.66477900336503 3.5 L 143.66477900336503 0 L 136.66477900336503 -3.5 L 136.66477900336503 -0.5 L 121.54332700168251 -0.5 Z"/><text text-anchor="middle" pointer-events="none" font-size="8px" fill="#000000" x="80.83238950168251" y="3" transform="rotate(180 80.83238950168251 0)" font-family="Helvetica Neue, Helvetica, Arial, sans-serif">TRANSFERRED_TO</text></g><g class="relationship" transform="translate(-257.96602707451433 4.047763318415046) rotate(213.87235862065745)"><path class="b-outline" fill="#A5ABB6" stroke="none" d="M 25 0.5 L 58.2798911689183 0.5 L 58.2798911689183 -0.5 L 25 -0.5 Z M 89.1666099189183 0.5 L 122.4465010878366 0.5 L 122.4465010878366 3.5 L 129.4465010878366 0 L 122.4465010878366 -3.5 L 122.4465010878366 -0.5 L 89.1666099189183 -0.5 Z"/><text text-anchor="middle" pointer-events="none" font-size="8px" fill="#000000" x="73.7232505439183" y="3" transform="rotate(180 73.7232505439183 0)" font-family="Helvetica Neue, Helvetica, Arial, sans-serif">OWNS</text></g><g class="relationship" transform="translate(-12.241171194995758 -79.37570796715646) rotate(180.40699954386213)"><path class="b-outline" fill="#A5ABB6" stroke="none" d="M 25 0.5 L 142.7732259886236 0.5 L 142.7732259886236 -0.5 L 25 -0.5 Z M 224.1951009886236 0.5 L 341.9683269772472 0.5 L 341.9683269772472 3.5 L 348.9683269772472 0 L 341.9683269772472 -3.5 L 341.9683269772472 -0.5 L 224.1951009886236 -0.5 Z"/><text text-anchor="middle" pointer-events="none" font-size="8px" fill="#000000" x="183.4841634886236" y="3" transform="rotate(180 183.4841634886236 0)" font-family="Helvetica Neue, Helvetica, Arial, sans-serif">TRANSFERRED_TO</text></g><g class="relationship" transform="translate(86.2770139825469 -19.629943033053017) rotate(211.23446690964937)"><path class="b-outline" fill="#A5ABB6" stroke="none" d="M 25 0.5 L 38.66607830286171 0.5 L 38.66607830286171 -0.5 L 25 -0.5 Z M 69.5527970528617 0.5 L 83.21887535572343 0.5 L 83.21887535572343 3.5 L 90.21887535572343 0 L 83.21887535572343 -3.5 L 83.21887535572343 -0.5 L 69.5527970528617 -0.5 Z"/><text text-anchor="middle" pointer-events="none" font-size="8px" fill="#000000" x="54.10943767786171" y="3" transform="rotate(180 54.10943767786171 0)" font-family="Helvetica Neue, Helvetica, Arial, sans-serif">OWNS</text></g><g class="relationship" transform="translate(-15.818007798016815 -242.1261752968051) rotate(448.74098883510715)"><path class="b-outline" fill="#A5ABB6" stroke="none" d="M 25 0.5 L 37.18394620914928 0.5 L 37.18394620914928 -0.5 L 25 -0.5 Z M 118.60582120914928 0.5 L 130.78976741829857 0.5 L 130.78976741829857 3.5 L 137.78976741829857 0 L 130.78976741829857 -3.5 L 130.78976741829857 -0.5 L 118.60582120914928 -0.5 Z"/><text text-anchor="middle" pointer-events="none" font-size="8px" fill="#000000" x="77.89488370914928" y="3" font-family="Helvetica Neue, Helvetica, Arial, sans-serif">TRANSFERRED_TO</text></g><g class="relationship" transform="translate(-13.656575465083336 -341.57421744334573) rotate(451.2450869144071)"><path class="b-outline" fill="#A5ABB6" stroke="none" d="M 25 0.5 L 30.792404609556364 0.5 L 30.792404609556364 -0.5 L 25 -0.5 Z M 61.679123359556364 0.5 L 67.47152796911273 0.5 L 67.47152796911273 3.5 L 74.47152796911273 0 L 67.47152796911273 -3.5 L 67.47152796911273 -0.5 L 61.679123359556364 -0.5 Z"/><text text-anchor="middle" pointer-events="none" font-size="8px" fill="#000000" x="46.235763984556364" y="3" transform="rotate(180 46.235763984556364 0)" font-family="Helvetica Neue, Helvetica, Arial, sans-serif">OWNS</text></g><g class="relationship" transform="translate(-210.53174479922848 -244.3039384992886) rotate(360.6407942231349)"><path class="b-outline" fill="#A5ABB6" stroke="none" d="M 25 0.5 L 53.15202007312314 0.5 L 53.15202007312314 -0.5 L 25 -0.5 Z M 134.57389507312314 0.5 L 162.72591514624628 0.5 L 162.72591514624628 3.5 L 169.72591514624628 0 L 162.72591514624628 -3.5 L 162.72591514624628 -0.5 L 134.57389507312314 -0.5 Z"/><text text-anchor="middle" pointer-events="none" font-size="8px" fill="#000000" x="93.86295757312314" y="3" font-family="Helvetica Neue, Helvetica, Arial, sans-serif">TRANSFERRED_TO</text></g><g class="relationship" transform="translate(-210.90607626457177 -342.54455545699955) rotate(449.7816838903257)"><path class="b-outline" fill="#A5ABB6" stroke="none" d="M 25 0.5 L 30.177305686350785 0.5 L 30.177305686350785 -0.5 L 25 -0.5 Z M 61.064024436350785 0.5 L 66.24133012270157 0.5 L 66.24133012270157 3.5 L 73.24133012270157 0 L 66.24133012270157 -3.5 L 66.24133012270157 -0.5 L 61.064024436350785 -0.5 Z"/><text text-anchor="middle" pointer-events="none" font-size="8px" fill="#000000" x="45.620665061350785" y="3" font-family="Helvetica Neue, Helvetica, Arial, sans-serif">OWNS</text></g><g class="relationship" transform="translate(-386.20006309239784 -82.0321629410751) rotate(269.0195780106783)"><path class="b-outline" fill="#A5ABB6" stroke="none" d="M 25 0.5 L 36.05615757174111 0.5 L 36.05615757174111 -0.5 L 25 -0.5 Z M 117.47803257174111 0.5 L 128.53419014348222 0.5 L 128.53419014348222 3.5 L 135.53419014348222 0 L 128.53419014348222 -3.5 L 128.53419014348222 -0.5 L 117.47803257174111 -0.5 Z"/><text text-anchor="middle" pointer-events="none" font-size="8px" fill="#000000" x="76.76709507174111" y="3" transform="rotate(180 76.76709507174111 0)" font-family="Helvetica Neue, Helvetica, Arial, sans-serif">TRANSFERRED_TO</text></g><g class="relationship" transform="translate(-550.3703199587394 -170.53592597713987) rotate(335.9595492218107)"><path class="b-outline" fill="#A5ABB6" stroke="none" d="M 25 0.5 L 69.43439492551497 0.5 L 69.43439492551497 -0.5 L 25 -0.5 Z M 100.32111367551497 0.5 L 144.75550860102993 0.5 L 144.75550860102993 3.5 L 151.75550860102993 0 L 144.75550860102993 -3.5 L 144.75550860102993 -0.5 L 100.32111367551497 -0.5 Z"/><text text-anchor="middle" pointer-events="none" font-size="8px" fill="#000000" x="84.87775430051497" y="3" font-family="Helvetica Neue, Helvetica, Arial, sans-serif">OWNS</text></g><g class="relationship" transform="translate(-388.9469245652522 -242.54285092499924) rotate(359.4344673550089)"><path class="b-outline" fill="#A5ABB6" stroke="none" d="M 25 0.5 L 45.000998080934 0.5 L 45.000998080934 -0.5 L 25 -0.5 Z M 126.422873080934 0.5 L 146.423871161868 0.5 L 146.423871161868 3.5 L 153.423871161868 0 L 146.423871161868 -3.5 L 146.423871161868 -0.5 L 126.422873080934 -0.5 Z"/><text text-anchor="middle" pointer-events="none" font-size="8px" fill="#000000" x="85.711935580934" y="3" font-family="Helvetica Neue, Helvetica, Arial, sans-serif">TRANSFERRED_TO</text></g><g class="relationship" transform="translate(-550.3703199587394 -170.53592597713987) rotate(416.8357472217541)"><path class="b-outline" fill="#A5ABB6" stroke="none" d="M 25 0.5 L 134.63604136614097 0.5 L 134.63604136614097 -0.5 L 25 -0.5 Z M 165.52276011614097 0.5 L 275.15880148228194 0.5 L 275.15880148228194 3.5 L 282.15880148228194 0 L 275.15880148228194 -3.5 L 275.15880148228194 -0.5 L 165.52276011614097 -0.5 Z"/><text text-anchor="middle" pointer-events="none" font-size="8px" fill="#000000" x="150.07940074114097" y="3" font-family="Helvetica Neue, Helvetica, Arial, sans-serif">OWNS</text></g></g><g class="layer nodes"><g class="node" aria-label="graph-node25" transform="translate(-257.96602707451433,4.047763318415046)"><circle class="b-outline" cx="0" cy="0" r="25" fill="#C990C0" stroke="#b261a5" stroke-width="2px"/><text class="caption" text-anchor="middle" pointer-events="none" x="0" y="5" font-size="10px" fill="#FFFFFF" font-family="Helvetica Neue, Helvetica, Arial, sans-serif"> C5</text></g><g class="node" aria-label="graph-node23" transform="translate(86.2770139825469,-19.629943033053017)"><circle class="b-outline" cx="0" cy="0" r="25" fill="#C990C0" stroke="#b261a5" stroke-width="2px"/><text class="caption" text-anchor="middle" pointer-events="none" x="0" y="5" font-size="10px" fill="#FFFFFF" font-family="Helvetica Neue, Helvetica, Arial, sans-serif"> C4</text></g><g class="node" aria-label="graph-node21" transform="translate(-13.656575465083336,-341.57421744334573)"><circle class="b-outline" cx="0" cy="0" r="25" fill="#C990C0" stroke="#b261a5" stroke-width="2px"/><text class="caption" text-anchor="middle" pointer-events="none" x="0" y="5" font-size="10px" fill="#FFFFFF" font-family="Helvetica Neue, Helvetica, Arial, sans-serif"> C3</text></g><g class="node" aria-label="graph-node19" transform="translate(-210.90607626457177,-342.54455545699955)"><circle class="b-outline" cx="0" cy="0" r="25" fill="#C990C0" stroke="#b261a5" stroke-width="2px"/><text class="caption" text-anchor="middle" pointer-events="none" x="0" y="5" font-size="10px" fill="#FFFFFF" font-family="Helvetica Neue, Helvetica, Arial, sans-serif"> C2</text></g><g class="node" aria-label="graph-node16" transform="translate(-550.3703199587394,-170.53592597713987)"><circle class="b-outline" cx="0" cy="0" r="25" fill="#C990C0" stroke="#b261a5" stroke-width="2px"/><text class="caption" text-anchor="middle" pointer-events="none" x="0" y="5" font-size="10px" fill="#FFFFFF" font-family="Helvetica Neue, Helvetica, Arial, sans-serif"> C1</text></g><g class="node" aria-label="graph-node18" transform="translate(-382.34184542662473,86.58848179941174)"><circle class="b-outline" cx="0" cy="0" r="25" fill="#F79767" stroke="#f36924" stroke-width="2px"/><text class="caption" text-anchor="middle" pointer-events="none" x="0" y="5" font-size="10px" fill="#FFFFFF" font-family="Helvetica Neue, Helvetica, Arial, sans-serif"> ACC-002</text></g><g class="node" aria-label="graph-node17" transform="translate(-388.9469245652522,-242.54285092499924)"><circle class="b-outline" cx="0" cy="0" r="25" fill="#F79767" stroke="#f36924" stroke-width="2px"/><text class="caption" text-anchor="middle" pointer-events="none" x="0" y="5" font-size="10px" fill="#FFFFFF" font-family="Helvetica Neue, Helvetica, Arial, sans-serif"> ACC-001</text></g><g class="node" aria-label="graph-node26" transform="translate(-386.20006309239784,-82.0321629410751)"><circle class="b-outline" cx="0" cy="0" r="25" fill="#F79767" stroke="#f36924" stroke-width="2px"/><text class="caption" text-anchor="middle" pointer-events="none" x="0" y="5" font-size="10px" fill="#FFFFFF" font-family="Helvetica Neue, Helvetica, Arial, sans-serif"> ACC-006</text></g><g class="node" aria-label="graph-node24" transform="translate(-12.241171194995758,-79.37570796715646)"><circle class="b-outline" cx="0" cy="0" r="25" fill="#F79767" stroke="#f36924" stroke-width="2px"/><text class="caption" text-anchor="middle" pointer-events="none" x="0" y="5" font-size="10px" fill="#FFFFFF" font-family="Helvetica Neue, Helvetica, Arial, sans-serif"> ACC-005</text></g><g class="node" aria-label="graph-node22" transform="translate(-15.818007798016815,-242.1261752968051)"><circle class="b-outline" cx="0" cy="0" r="25" fill="#F79767" stroke="#f36924" stroke-width="2px"/><text class="caption" text-anchor="middle" pointer-events="none" x="0" y="5" font-size="10px" fill="#FFFFFF" font-family="Helvetica Neue, Helvetica, Arial, sans-serif"> ACC-004</text></g><g class="node" aria-label="graph-node20" transform="translate(-210.53174479922848,-244.3039384992886)"><circle class="b-outline" cx="0" cy="0" r="25" fill="#F79767" stroke="#f36924" stroke-width="2px"/><text class="caption" text-anchor="middle" pointer-events="none" x="0" y="5" font-size="10px" fill="#FFFFFF" font-family="Helvetica Neue, Helvetica, Arial, sans-serif"> ACC-003</text></g></g></svg>